{
  "source": "C:\\Users\\Peter\\Desktop\\stuff\\MIUN\\quantitative_research\\video_compression\\videos\\HEVC_CLASS_B\\ParkScene_1920x1080_24.y4m",
  "output": "C:\\Users\\Peter\\Desktop\\stuff\\MIUN\\quantitative_research\\video_compression\\compressed_videos\\HEVC_CLASS_B\\vp9\\2.5\\ParkScene_1920x1080_24_vp9.webm",
  "codec": "vp9",
  "ok": "Input #0, yuv4mpegpipe, from 'C:\\Users\\Peter\\Desktop\\stuff\\MIUN\\quantitative_research\\video_compression\\videos\\HEVC_CLASS_B\\ParkScene_1920x1080_24.y4m':\n  Duration: 00:00:10.00, start: 0.000000, bitrate: 597198 kb/s\n  Stream #0:0: Video: rawvideo (I420 / 0x30323449), yuv420p(progressive), 1920x1080, 24 fps, 24 tbr, 24 tbn\n[out#0/webm @ 000002539ba09b80] Codec AVOption b:a (set bitrate (in bits/s)) has not been used for any stream. The most likely reason is either wrong type (e.g. a video option with no video streams) or that it is a private option of some decoder which was not actually used for any stream.\nStream mapping:\n  Stream #0:0 -> #0:0 (rawvideo (native) -> vp9 (libvpx-vp9))\nPress [q] to stop, [?] for help\n[libvpx-vp9 @ 000002539ba0bfc0] v1.15.2-100-g40561f514\nOutput #0, webm, to 'C:\\Users\\Peter\\Desktop\\stuff\\MIUN\\quantitative_research\\video_compression\\compressed_videos\\HEVC_CLASS_B\\vp9\\2.5\\ParkScene_1920x1080_24_vp9.webm':\n  Metadata:\n    encoder         : Lavf62.3.100\n  Stream #0:0: Video: vp9, yuv420p(tv, progressive), 1920x1080, q=2-31, 2500 kb/s, 24 fps, 1k tbn\n    Metadata:\n      encoder         : Lavc62.11.100 libvpx-vp9\n    Side data:\n      cpb: bitrate max/min/avg: 0/0/0 buffer size: 2500000 vbv_delay: N/A\nframe=    0 fps=0.0 q=0.0 size=       0KiB time=N/A bitrate=N/A speed=N/A elapsed=0:00:00.50    \nframe=    6 fps=5.8 q=43.0 size=       0KiB time=00:00:00.25 bitrate=  15.4kbits/s speed=0.242x elapsed=0:00:01.03    \nframe=   11 fps=7.0 q=35.0 size=       0KiB time=00:00:00.45 bitrate=   8.4kbits/s speed=0.291x elapsed=0:00:01.57    \nframe=   16 fps=7.6 q=42.0 size=       0KiB time=00:00:00.66 bitrate=   5.8kbits/s speed=0.316x elapsed=0:00:02.10    \nframe=   20 fps=7.6 q=42.0 size=       0KiB time=00:00:00.83 bitrate=   4.6kbits/s speed=0.315x elapsed=0:00:02.64    \nframe=   24 fps=7.6 q=40.0 size=       0KiB time=00:00:01.00 bitrate=   3.9kbits/s speed=0.316x elapsed=0:00:03.16    \nframe=   28 fps=7.6 q=41.0 size=       0KiB time=00:00:01.16 bitrate=   3.3kbits/s speed=0.316x elapsed=0:00:03.69    \nframe=   32 fps=7.6 q=42.0 size=       0KiB time=00:00:01.33 bitrate=   2.9kbits/s speed=0.316x elapsed=0:00:04.21    \nframe=   36 fps=7.6 q=41.0 size=       0KiB time=00:00:01.50 bitrate=   2.6kbits/s speed=0.316x elapsed=0:00:04.74    \nframe=   40 fps=7.6 q=42.0 size=       0KiB time=00:00:01.66 bitrate=   2.3kbits/s speed=0.317x elapsed=0:00:05.26    \nframe=   43 fps=7.4 q=40.0 size=       0KiB time=00:00:01.79 bitrate=   2.2kbits/s speed=0.31x elapsed=0:00:05.77    \nframe=   47 fps=7.5 q=42.0 size=       0KiB time=00:00:01.95 bitrate=   2.0kbits/s speed=0.311x elapsed=0:00:06.29    \nframe=   50 fps=7.4 q=44.0 size=       0KiB time=00:00:02.08 bitrate=   1.9kbits/s speed=0.306x elapsed=0:00:06.80    \nframe=   55 fps=7.5 q=43.0 size=       0KiB time=00:00:02.29 bitrate=   1.7kbits/s speed=0.313x elapsed=0:00:07.33    \nframe=   59 fps=7.5 q=45.0 size=       0KiB time=00:00:02.45 bitrate=   1.6kbits/s speed=0.312x elapsed=0:00:07.87    \nframe=   62 fps=7.4 q=45.0 size=       0KiB time=00:00:02.58 bitrate=   1.5kbits/s speed=0.307x elapsed=0:00:08.42    \nframe=   66 fps=7.4 q=44.0 size=       0KiB time=00:00:02.75 bitrate=   1.4kbits/s speed=0.307x elapsed=0:00:08.94    \nframe=   70 fps=7.4 q=44.0 size=       0KiB time=00:00:02.91 bitrate=   1.3kbits/s speed=0.307x elapsed=0:00:09.49    \nframe=   73 fps=7.3 q=41.0 size=       0KiB time=00:00:03.04 bitrate=   1.3kbits/s speed=0.304x elapsed=0:00:10.00    \nframe=   77 fps=7.3 q=43.0 size=       0KiB time=00:00:03.20 bitrate=   1.2kbits/s speed=0.305x elapsed=0:00:10.53    \nframe=   80 fps=7.2 q=44.0 size=       0KiB time=00:00:03.33 bitrate=   1.2kbits/s speed=0.302x elapsed=0:00:11.05    \nframe=   85 fps=7.3 q=42.0 size=       0KiB time=00:00:03.54 bitrate=   1.1kbits/s speed=0.306x elapsed=0:00:11.58    \nframe=   89 fps=7.4 q=44.0 size=       0KiB time=00:00:03.70 bitrate=   1.0kbits/s speed=0.306x elapsed=0:00:12.09    \nframe=   92 fps=7.3 q=44.0 size=       0KiB time=00:00:03.83 bitrate=   1.0kbits/s speed=0.303x elapsed=0:00:12.64    \nframe=   97 fps=7.4 q=43.0 size=       0KiB time=00:00:04.04 bitrate=   1.0kbits/s speed=0.307x elapsed=0:00:13.16    \nframe=  100 fps=7.3 q=43.0 size=       0KiB time=00:00:04.16 bitrate=   0.9kbits/s speed=0.304x elapsed=0:00:13.70    \nframe=  104 fps=7.3 q=42.0 size=       0KiB time=00:00:04.33 bitrate=   0.9kbits/s speed=0.304x elapsed=0:00:14.25    \nframe=  109 fps=7.4 q=43.0 size=       0KiB time=00:00:04.54 bitrate=   0.8kbits/s speed=0.307x elapsed=0:00:14.77    \nframe=  113 fps=7.4 q=41.0 size=       0KiB time=00:00:04.66 bitrate=   0.8kbits/s speed=0.305x elapsed=0:00:15.29    \nframe=  117 fps=7.4 q=42.0 size=       0KiB time=00:00:04.87 bitrate=   0.8kbits/s speed=0.308x elapsed=0:00:15.81    \nframe=  120 fps=7.3 q=42.0 size=       0KiB time=00:00:05.00 bitrate=   0.8kbits/s speed=0.306x elapsed=0:00:16.33    \nframe=  126 fps=7.5 q=41.0 size=    1536KiB time=00:00:05.25 bitrate=2396.7kbits/s speed=0.312x elapsed=0:00:16.85    \nframe=  128 fps=7.4 q=42.0 size=    1536KiB time=00:00:05.33 bitrate=2359.3kbits/s speed=0.307x elapsed=0:00:17.37    \nframe=  134 fps=7.5 q=39.0 size=    1792KiB time=00:00:05.58 bitrate=2629.3kbits/s speed=0.312x elapsed=0:00:17.88    \nframe=  138 fps=7.5 q=41.0 size=    1792KiB time=00:00:05.75 bitrate=2553.1kbits/s speed=0.312x elapsed=0:00:18.40    \nframe=  143 fps=7.5 q=39.0 size=    1792KiB time=00:00:05.95 bitrate=2463.8kbits/s speed=0.314x elapsed=0:00:18.94    \nframe=  147 fps=7.5 q=40.0 size=    1792KiB time=00:00:06.12 bitrate=2396.7kbits/s speed=0.314x elapsed=0:00:19.48    \nframe=  150 fps=7.5 q=41.0 size=    1792KiB time=00:00:06.25 bitrate=2348.8kbits/s speed=0.312x elapsed=0:00:20.03    \nframe=  154 fps=7.5 q=40.0 size=    1792KiB time=00:00:06.37 bitrate=2302.8kbits/s speed=0.31x elapsed=0:00:20.56    \nframe=  156 fps=7.4 q=40.0 size=    1792KiB time=00:00:06.50 bitrate=2258.5kbits/s speed=0.308x elapsed=0:00:21.11    \nframe=  158 fps=7.3 q=41.0 size=    1792KiB time=00:00:06.58 bitrate=2229.9kbits/s speed=0.304x elapsed=0:00:21.66    \nframe=  161 fps=7.2 q=38.0 size=    1792KiB time=00:00:06.70 bitrate=2188.3kbits/s speed=0.301x elapsed=0:00:22.25    \nframe=  164 fps=7.2 q=39.0 size=    1792KiB time=00:00:06.83 bitrate=2148.3kbits/s speed= 0.3x elapsed=0:00:22.77    \nframe=  167 fps=7.2 q=40.0 size=    1792KiB time=00:00:06.95 bitrate=2109.7kbits/s speed=0.299x elapsed=0:00:23.30    \nframe=  168 fps=7.0 q=41.0 size=    1792KiB time=00:00:07.00 bitrate=2097.2kbits/s speed=0.293x elapsed=0:00:23.86    \nframe=  171 fps=7.0 q=39.0 size=    1792KiB time=00:00:07.12 bitrate=2060.4kbits/s speed=0.292x elapsed=0:00:24.43    \nframe=  174 fps=7.0 q=41.0 size=    1792KiB time=00:00:07.25 bitrate=2024.8kbits/s speed=0.29x elapsed=0:00:24.98    \nframe=  177 fps=6.9 q=41.0 size=    1792KiB time=00:00:07.37 bitrate=1990.5kbits/s speed=0.289x elapsed=0:00:25.53    \nframe=  178 fps=6.8 q=42.0 size=    1792KiB time=00:00:07.41 bitrate=1979.3kbits/s speed=0.284x elapsed=0:00:26.09    \nframe=  182 fps=6.8 q=40.0 size=    1792KiB time=00:00:07.58 bitrate=1935.8kbits/s speed=0.285x elapsed=0:00:26.63    \nframe=  185 fps=6.8 q=42.0 size=    1792KiB time=00:00:07.70 bitrate=1904.4kbits/s speed=0.284x elapsed=0:00:27.16    \nframe=  188 fps=6.8 q=42.0 size=    1792KiB time=00:00:07.83 bitrate=1874.1kbits/s speed=0.283x elapsed=0:00:27.69    \nframe=  192 fps=6.8 q=40.0 size=    1792KiB time=00:00:08.00 bitrate=1835.0kbits/s speed=0.283x elapsed=0:00:28.25    \nframe=  195 fps=6.8 q=42.0 size=    1792KiB time=00:00:08.12 bitrate=1806.8kbits/s speed=0.282x elapsed=0:00:28.77    \nframe=  198 fps=6.8 q=42.0 size=    1792KiB time=00:00:08.25 bitrate=1779.4kbits/s speed=0.282x elapsed=0:00:29.28    \nframe=  203 fps=6.8 q=41.0 size=    1792KiB time=00:00:08.41 bitrate=1744.2kbits/s speed=0.282x elapsed=0:00:29.80    \nframe=  206 fps=6.8 q=41.0 size=    1792KiB time=00:00:08.58 bitrate=1710.3kbits/s speed=0.283x elapsed=0:00:30.34    \nframe=  209 fps=6.8 q=26.0 size=    1792KiB time=00:00:08.70 bitrate=1685.7kbits/s speed=0.282x elapsed=0:00:30.86    \nframe=  214 fps=6.8 q=42.0 size=    1792KiB time=00:00:08.91 bitrate=1646.4kbits/s speed=0.284x elapsed=0:00:31.39    \nframe=  216 fps=6.8 q=42.0 size=    1792KiB time=00:00:09.00 bitrate=1631.1kbits/s speed=0.282x elapsed=0:00:31.93    \nframe=  216 fps=6.7 q=42.0 size=    1792KiB time=00:00:09.00 bitrate=1631.1kbits/s speed=0.277x elapsed=0:00:32.46    \nframe=  216 fps=6.5 q=42.0 size=    1792KiB time=00:00:09.00 bitrate=1631.1kbits/s speed=0.273x elapsed=0:00:32.97    \nframe=  216 fps=6.4 q=42.0 size=    1792KiB time=00:00:09.00 bitrate=1631.1kbits/s speed=0.269x elapsed=0:00:33.50    \nframe=  216 fps=6.3 q=42.0 size=    1792KiB time=00:00:09.00 bitrate=1631.1kbits/s speed=0.265x elapsed=0:00:34.02    \nframe=  216 fps=6.3 q=42.0 size=    1792KiB time=00:00:09.00 bitrate=1631.1kbits/s speed=0.261x elapsed=0:00:34.54    \n[out#0/webm @ 000002539ba09b80] video:3359KiB audio:0KiB subtitle:0KiB other streams:0KiB global headers:0KiB muxing overhead: 0.065701%\nframe=  240 fps=6.9 q=36.0 Lsize=    3361KiB time=00:00:10.00 bitrate=2753.7kbits/s speed=0.289x elapsed=0:00:34.63    \n",
  "seconds": 34.75872206687927,
  "probe_out": {}
}